<svg xmlns="http://www.w3.org/2000/svg" xmlns:svg="http://www.w3.org/2000/svg" xmlns:xlink="http://www.w3.org/1999/xlink" id="svg2" width="524.81" height="541.928" version="1.0"><defs id="defs4"><linearGradient id="linearGradient3207"><stop id="stop3209" offset="0" stop-color="#fff" stop-opacity=".514"/><stop id="stop3211" offset="1" stop-color="#76b9fb" stop-opacity="0"/></linearGradient><linearGradient id="linearGradient3189"><stop id="stop3191" offset="0" stop-color="#fff" stop-opacity="1"/><stop id="stop3193" offset="1" stop-color="#76b9fb" stop-opacity="0"/></linearGradient><linearGradient id="linearGradient3177"><stop id="stop3179" offset="0" stop-color="#2166ce" stop-opacity="1"/><stop id="stop3181" offset="1" stop-color="#76b9fb" stop-opacity="1"/></linearGradient><linearGradient id="linearGradient3183" x1="-113.181" x2="87.294" y1="94.069" y2="196.299" gradientUnits="userSpaceOnUse" xlink:href="#linearGradient3177"/><radialGradient id="radialGradient3187" cx="-65.175" cy="257.47" r="147.356" fx="-65.175" fy="257.47" gradientTransform="matrix(0.9973701,7.2477038e-2,-8.1815483e-2,1.1258782,20.893644,-31.286202)" gradientUnits="userSpaceOnUse" xlink:href="#linearGradient3189"/><radialGradient id="radialGradient3199" cx="111.033" cy="166.657" r="147.356" fx="111.033" fy="166.657" gradientTransform="matrix(0.5134757,2.4437577e-2,-2.7551034e-2,0.5788946,65.578572,65.206227)" gradientUnits="userSpaceOnUse" xlink:href="#linearGradient3189"/><radialGradient id="radialGradient3205" cx="56.787" cy="73.975" r="147.356" fx="56.787" fy="73.975" gradientTransform="matrix(0.5552136,-0.6613875,0.7169659,0.6018699,37.072783,80.283257)" gradientUnits="userSpaceOnUse" xlink:href="#linearGradient3207"/></defs><metadata id="metadata7"/><g id="layer1" transform="translate(-72.611421,-111.20599)"><path id="path3155" fill="url(#linearGradient3183)" fill-opacity="1" stroke="none" stroke-dasharray="none" stroke-linecap="butt" stroke-linejoin="miter" stroke-miterlimit="4" stroke-opacity="1" stroke-width="2.21" d="M 11.428575,343.79076 C -20.688595,343.79076 -150.61715,118.74791 -134.55857,90.933621 C -118.49998,63.119335 141.35712,63.119328 157.41571,90.933613 C 173.47429,118.7479 43.545746,343.79076 11.428575,343.79076 z" transform="matrix(1.385337,-1.1652199,1.1652199,1.385337,160.77379,177.08667)"/><path id="path3157" fill="#fff" fill-opacity=".458" stroke="none" stroke-dasharray="none" stroke-linecap="butt" stroke-linejoin="miter" stroke-miterlimit="4" stroke-opacity="1" stroke-width="3.017" d="M 11.428575,343.79076 C -20.688595,343.79076 -150.61715,118.74791 -134.55857,90.933621 C -118.49998,63.119335 141.35712,63.119328 157.41571,90.933613 C 173.47429,118.7479 43.545746,343.79076 11.428575,343.79076 z" transform="matrix(1.0146457,-0.853428,0.853428,1.0146457,272.20143,300.96357)"/><path id="path3159" fill="#fff" fill-opacity=".625" stroke="none" stroke-dasharray="none" stroke-linecap="butt" stroke-linejoin="miter" stroke-miterlimit="4" stroke-opacity="1" stroke-width="4.669" d="M 11.428575,343.79076 C -20.688595,343.79076 -150.61715,118.74791 -134.55857,90.933621 C -118.49998,63.119335 141.35712,63.119328 157.41571,90.933613 C 173.47429,118.7479 43.545746,343.79076 11.428575,343.79076 z" transform="matrix(0.6555978,-0.5514294,0.5514294,0.6555978,380.12917,420.94953)"/><path id="path3185" fill="url(#radialGradient3187)" fill-opacity="1" stroke="none" stroke-dasharray="none" stroke-linecap="butt" stroke-linejoin="miter" stroke-miterlimit="4" stroke-opacity="1" stroke-width="2.21" d="M 11.428575,343.79076 C -20.688595,343.79076 -150.61715,118.74791 -134.55857,90.933621 C -118.49998,63.119335 141.35712,63.119328 157.41571,90.933613 C 173.47429,118.7479 43.545746,343.79076 11.428575,343.79076 z" transform="matrix(1.385337,-1.1652199,1.1652199,1.385337,160.77379,177.08667)"/><path id="path3197" fill="url(#radialGradient3199)" fill-opacity="1" stroke="#454545" stroke-dasharray="none" stroke-linecap="butt" stroke-linejoin="miter" stroke-miterlimit="4" stroke-opacity="1" stroke-width="8.286" d="M 11.428575,343.79076 C -20.688595,343.79076 -150.61715,118.74791 -134.55857,90.933621 C -118.49998,63.119335 141.35712,63.119328 157.41571,90.933613 C 173.47429,118.7479 43.545746,343.79076 11.428575,343.79076 z" transform="matrix(1.385337,-1.1652199,1.1652199,1.385337,160.77379,177.08667)"/></g></svg>